<?xml version="1.0" encoding="iso-8859-1"?>
<!-- Uploaded to: SVG Repo, www.svgrepo.com, Generator: SVG Repo Mixer Tools -->
<svg height="800px" width="800px" version="1.1" id="Layer_1" xmlns="http://www.w3.org/2000/svg" xmlns:xlink="http://www.w3.org/1999/xlink" 
	 viewBox="0 0 503.467 503.467" xml:space="preserve">
<g transform="translate(1 13)">
	<path style="fill:#C49AE9;" d="M28.866,93.667c14.507,0,25.6,11.093,25.6,25.6s-11.093,25.6-25.6,25.6s-25.6-11.093-25.6-25.6
		S14.36,93.667,28.866,93.667z M378.733,144.867c0,9.387-7.68,17.067-17.067,17.067s-17.067-7.68-17.067-17.067
		s7.68-17.067,17.067-17.067S378.733,135.48,378.733,144.867z M250.733,42.467c14.507,0,25.6,11.093,25.6,25.6
		s-11.093,25.6-25.6,25.6c-14.507,0-25.6-11.093-25.6-25.6S236.226,42.467,250.733,42.467z M139.8,161.933
		c-9.387,0-17.067-7.68-17.067-17.067s7.68-17.067,17.067-17.067s17.067,7.68,17.067,17.067S149.186,161.933,139.8,161.933z
		 M498.2,119.267c0,14.507-11.093,25.6-25.6,25.6s-25.6-11.093-25.6-25.6s11.093-25.6,25.6-25.6S498.2,104.76,498.2,119.267z"/>
	<g>
		<path style="fill:#ECF4F7;" d="M195.266,229.347L173.933,281.4l-49.493-49.493l1.707-1.707l13.653-67.413l53.76,66.56H195.266z
			 M377.88,231.053L327.533,281.4L306.2,228.493l2.56-0.853l53.76-65.707l13.653,67.413L377.88,231.053z"/>
		<path style="fill:#ECF4F7;" d="M430.786,366.733L429.933,435h-358.4v-68.267H430.786L430.786,366.733z M464.066,144.867
			l-34.133,221.867h-358.4L37.4,144.867l87.04,87.04l49.493,49.493l21.333-52.053l55.467-135.68L306.2,228.493l21.333,52.907
			l50.347-50.347L464.066,144.867z"/>
	</g>
</g>
<path style="fill:#51565F;" d="M430.933,452.267h-358.4c-2.56,0-4.267-1.707-4.267-4.267v-34.133c0-2.56,1.707-4.267,4.267-4.267
	c2.56,0,4.267,1.707,4.267,4.267v29.867h349.867l0.853-62.293c-0.853-0.853-0.853-1.707-0.853-2.56l32.427-209.067L331.947,296.96
	c-0.853,0.853-2.56,1.707-4.267,0.853c-1.707,0-2.56-0.853-3.413-2.56l-72.533-178.347L179.2,295.254
	c-0.853,1.707-1.707,2.56-3.413,2.56c-1.707,0-2.56,0-4.267-0.853L44.373,169.813l31.573,205.653H396.8
	c2.56,0,4.267,1.707,4.267,4.267S399.36,384,396.8,384H72.533c-1.707,0-4.267-1.707-4.267-3.413l-33.28-218.453
	c-1.707,0-3.413,0-5.12,0C13.653,162.134,0,148.48,0,132.267S13.653,102.4,29.867,102.4s29.867,13.653,29.867,29.867
	c0,11.093-5.973,20.48-15.36,25.6L173.227,286.72l72.533-176.64c-13.653-2.56-23.893-14.507-23.893-29.013
	c0-16.213,13.653-29.867,29.867-29.867S281.6,64.854,281.6,81.067c0,14.507-10.24,26.453-23.893,29.013l72.533,176.64
	l128.853-128.853c-8.533-5.12-15.36-14.507-15.36-25.6c0-16.213,13.653-29.867,29.867-29.867s29.867,13.653,29.867,29.867
	s-13.653,29.867-29.867,29.867c-1.707,0-3.413,0-5.12,0L435.2,378.88c0,0.853,0.853,0.853,0,1.707l-0.853,68.267
	C435.2,450.56,433.493,452.267,430.933,452.267z M473.6,110.933c-11.947,0-21.333,9.387-21.333,21.333
	c0,11.947,9.387,21.333,21.333,21.333s21.333-9.387,21.333-21.333C494.933,120.32,485.546,110.933,473.6,110.933z M29.866,110.933
	c-11.947,0-21.333,9.387-21.333,21.333c0,11.947,9.387,21.333,21.333,21.333S51.2,144.213,51.2,132.267
	C51.2,120.32,41.813,110.933,29.866,110.933z M251.733,59.733c-11.947,0-21.333,9.387-21.333,21.333s9.387,21.333,21.333,21.333
	c11.947,0,21.333-9.387,21.333-21.333S263.68,59.733,251.733,59.733z M371.2,221.867c-1.707,0-3.413-1.707-4.267-3.413l-6.827-33.28
	l-28.16,35.84c-1.707,1.707-4.267,2.56-5.973,0.853c-1.707-1.707-2.56-4.267-0.853-5.973l29.867-37.547
	c-7.68-3.413-13.653-11.093-13.653-19.627c0-11.947,9.387-21.333,21.333-21.333S384,146.774,384,158.72
	c0,10.24-6.827,18.773-16.213,20.48l7.68,38.4C375.466,219.307,374.613,221.013,371.2,221.867
	C372.053,221.867,371.2,221.867,371.2,221.867z M362.666,145.067c-6.827,0-12.8,5.973-12.8,12.8c0,6.827,5.973,12.8,12.8,12.8l0,0
	c6.827,0,12.8-5.973,12.8-12.8C375.466,151.04,369.493,145.067,362.666,145.067z M132.266,221.867
	C132.266,221.867,131.413,221.867,132.266,221.867c-3.413-0.853-4.267-2.56-4.267-5.12l7.68-38.4
	c-9.387-2.56-16.213-11.093-16.213-20.48c0-11.947,9.387-21.333,21.333-21.333c11.947,0,21.333,9.387,21.333,21.333
	c0,9.387-5.973,17.067-13.653,19.627l29.867,37.547c1.707,1.707,0.853,4.267-0.853,5.973c-1.707,1.707-4.267,0.853-5.973-0.853
	l-28.16-35.84l-6.827,33.28C135.68,220.16,133.973,221.867,132.266,221.867z M140.8,170.667L140.8,170.667
	c6.827,0,12.8-5.973,12.8-12.8c0-6.827-5.973-12.8-12.8-12.8c-6.827,0-12.8,5.973-12.8,12.8
	C128,164.693,133.973,170.667,140.8,170.667L140.8,170.667z"/>
</svg>