<?xml version="1.0" ?>
<!-- Uploaded to: SVG Repo, www.svgrepo.com, Generator: SVG Repo Mixer Tools -->
<svg width="800px" height="800px" viewBox="0 0 512 512" version="1.1" xml:space="preserve" xmlns="http://www.w3.org/2000/svg" xmlns:xlink="http://www.w3.org/1999/xlink">
<style type="text/css">
	.st0{display:none;}
	.st1{fill:#FFE2D2;}
	.st2{fill:#FFDE83;}
	.st3{fill:#F57070;}
	.st4{fill:#DBDBEF;}
	.st5{fill:#BCE2FF;}
	.st6{fill:#48446D;}
	.st7{fill:#6E78FF;}
	.st8{fill:#FFBE83;}
	.st9{fill:#F5949E;}
	.st10{fill:#D0FF67;}
	.st11{fill:#C69C6D;}
	.st12{fill:#C5BDD3;}
	.st13{fill:#FFE2B8;}
	.st14{fill:#F54670;}
</style>
<g class="st0" id="Layer_1"/>
<g id="Layer_2">
<g>
<path class="st6" d="M145.11,414.76c0,0.46-0.05,0.92-0.14,1.37c-0.09,0.45-0.22,0.89-0.4,1.31c-0.09,0.21-0.18,0.41-0.29,0.61    c-0.08,0.15-0.17,0.3-0.26,0.44c-0.02,0.06-0.06,0.11-0.09,0.16c-0.06,0.09-0.13,0.17-0.19,0.26c-0.21,0.28-0.44,0.56-0.68,0.8    c-1.31,1.31-3.11,2.05-4.95,2.05c-1.84,0-3.65-0.74-4.95-2.05c-0.33-0.32-0.62-0.68-0.87-1.06s-0.47-0.79-0.65-1.21    c-0.17-0.42-0.31-0.86-0.4-1.31c-0.09-0.45-0.13-0.91-0.13-1.37c0-1.84,0.74-3.64,2.05-4.95c0.15-0.15,0.31-0.26,0.47-0.39    c0.13-0.11,0.25-0.23,0.39-0.33c0.14-0.1,0.29-0.18,0.44-0.27c1.09-0.68,2.36-1.06,3.65-1.06c1.84,0,3.65,0.75,4.95,2.05    C144.36,411.12,145.11,412.92,145.11,414.76z"/>
<path class="st6" d="M283.84,437.35c-0.16,0.23-0.32,0.45-0.49,0.66c-0.45,0.65-0.94,1.27-1.42,1.9l-0.45,0.57    c-0.8,1.05-1.61,2.1-2.51,3.16c-0.7,0.8-1.38,1.53-2.03,2.22l-0.19,0.19c-0.78,0.84-1.73,1.83-2.76,2.81    c-0.67,0.64-1.39,1.28-2.32,2.09c-1.05,0.91-2.11,1.79-3.15,2.59c-0.77,0.6-1.55,1.18-2.34,1.74c-1.07,0.77-2.24,1.54-3.56,2.36    l-0.27,0.17c-0.67,0.42-1.34,0.84-2.03,1.23c-1.47,0.84-2.91,1.56-4.01,2.1l-0.57,0.28c-0.53,0.27-1.06,0.54-1.61,0.79    c-1.67,0.75-3.29,1.36-4.65,1.86c-0.16,0.06-0.33,0.13-0.49,0.19c-0.44,0.18-0.87,0.35-1.32,0.5c-2.31,0.78-4.48,1.4-6.64,1.91    c-0.01,0-0.02,0-0.04,0.01c-2.15,0.5-4.38,0.9-6.8,1.23c-0.47,0.06-0.94,0.1-1.41,0.14c-0.18,0.01-0.36,0.03-0.54,0.05    c-1.44,0.15-3.16,0.32-4.96,0.38c-0.39,0.02-0.77,0.02-1.15,0.02h-0.67l-0.63-0.01c-1.3,0.01-2.86,0-4.5-0.1    c-0.79-0.05-1.58-0.13-2.37-0.21l-0.34-0.03c-1.56-0.16-2.93-0.33-4.21-0.53c-0.96-0.16-1.93-0.34-2.89-0.53    c-1.29-0.26-2.61-0.57-3.94-0.92c-1.2-0.32-2.14-0.58-3.04-0.86c-1.33-0.41-2.61-0.87-3.69-1.27l-0.25-0.1    c-0.91-0.33-1.84-0.68-2.83-1.1c-1.26-0.54-2.42-1.11-3.55-1.67l-0.74-0.36c-0.72-0.34-1.43-0.69-2.13-1.07    c-0.27-0.13-0.5-0.25-0.73-0.37c-13.32-7.49-25.52-15.21-36.26-22.94c-3.14-2.26-3.85-6.64-1.59-9.77    c0.03-0.04,0.06-0.08,0.09-0.12c0.1-0.13,0.2-0.27,0.32-0.39c0.11-0.13,0.23-0.24,0.34-0.36c2.38-2.38,6.2-2.75,9.02-0.72    c10.29,7.41,22.01,14.82,34.83,22.03c0.24,0.11,0.44,0.21,0.63,0.32c0.52,0.29,1.05,0.54,1.58,0.79l0.75,0.37    c1.07,0.53,2.02,0.99,2.92,1.38c0.73,0.31,1.47,0.58,2.21,0.85l0.26,0.1c0.9,0.33,1.96,0.72,2.97,1.03    c0.81,0.25,1.62,0.47,2.44,0.69c1.08,0.28,2.14,0.53,3.16,0.74c0.77,0.15,1.55,0.3,2.33,0.42c1,0.16,2.11,0.3,3.38,0.43l0.35,0.03    c0.61,0.06,1.21,0.13,1.82,0.16c1.26,0.08,2.54,0.09,3.62,0.08l0.78,0.01c0.4,0,0.8,0.01,1.19-0.01c1.38-0.05,2.8-0.19,4-0.32    c0.3-0.03,0.6-0.05,0.9-0.08c0.22-0.01,0.45-0.03,0.67-0.06c1.93-0.26,3.7-0.57,5.38-0.97c0.08-0.01,0.15-0.03,0.23-0.05    c1.68-0.39,3.4-0.89,5.25-1.52c0.22-0.07,0.42-0.15,0.62-0.23c0.28-0.11,0.56-0.22,0.83-0.33c1.14-0.41,2.47-0.92,3.75-1.49    c0.36-0.16,0.7-0.34,1.05-0.52l0.7-0.34c0.91-0.45,2.1-1.05,3.23-1.69c0.53-0.31,1.04-0.63,1.56-0.95l0.28-0.18    c1.08-0.67,2.02-1.29,2.87-1.9c0.64-0.45,1.26-0.91,1.87-1.39c0.83-0.64,1.68-1.34,2.53-2.08c0.64-0.55,1.26-1.11,1.87-1.68    c0.78-0.75,1.56-1.56,2.22-2.26l0.19-0.2c0.54-0.57,1.08-1.14,1.59-1.74c0.65-0.75,1.3-1.6,1.99-2.5l0.54-0.7    c0.35-0.46,0.71-0.91,1.05-1.39c0.14-0.21,0.28-0.4,0.43-0.58c35.23-51.55,49.21-94.33,41.55-127.13    c-3.51-14.99-12.64-27.72-25.71-35.84c-13.08-8.12-28.53-10.67-43.52-7.16c-17.28,4.03-31.52,15.61-39.07,31.76    c-0.91,1.95-2.66,3.37-4.75,3.86c-2.09,0.48-4.29-0.01-5.96-1.35c-13.93-11.14-31.83-15.21-49.11-11.17    c-30.94,7.23-50.23,38.29-43,69.23c3.04,13.03,9.98,26.15,20.61,38.99c2.02,2.43,2.08,5.8,0.43,8.3c-0.1,0.15-0.18,0.29-0.28,0.43    c-0.1,0.13-0.21,0.26-0.32,0.38c-0.24,0.27-0.48,0.52-0.76,0.75c-2.98,2.46-7.39,2.04-9.85-0.93    c-12.03-14.53-19.93-29.58-23.47-44.73c-8.98-38.46,15-77.06,53.46-86.05c18.77-4.39,38.13-1.08,54.25,9.05    c9.97-16.23,25.86-27.77,44.63-32.16c18.63-4.35,37.84-1.19,54.1,8.91c16.25,10.09,27.6,25.92,31.95,44.55    C336.14,335.83,321.44,382.37,283.84,437.35z"/>
<path class="st6" d="M287.26,315.63c-0.53,0.12-1.07,0.18-1.6,0.18c-3.18,0-6.05-2.18-6.81-5.41    c-2.3-9.84-10.94-16.72-21.01-16.72c-3.86,0-7-3.13-7-7s3.14-7,7-7c16.61,0,30.86,11.32,34.64,27.54    C293.36,310.98,291.03,314.75,287.26,315.63z"/>
<path class="st6" d="M183.42,175.98c-0.05,0.17-0.1,0.34-0.16,0.51c-0.11,0.38-0.24,0.76-0.37,1.14l-0.1,0.3    c-0.24,0.72-0.46,1.37-0.71,2.01c-0.2,0.5-0.41,0.99-0.64,1.48l-0.04,0.1c-0.29,0.63-0.58,1.26-0.9,1.87    c-0.25,0.49-0.52,0.97-0.79,1.44c-0.35,0.62-0.73,1.23-1.12,1.83c-0.28,0.43-0.57,0.85-0.86,1.27c-0.41,0.57-0.86,1.16-1.37,1.79    l-0.08,0.1c-0.27,0.34-0.54,0.67-0.82,0.99c-0.59,0.67-1.18,1.28-1.63,1.73l-0.19,0.2c-0.23,0.24-0.47,0.48-0.71,0.71    c-0.72,0.68-1.45,1.28-1.99,1.73l-0.12,0.1c-0.21,0.18-0.43,0.37-0.66,0.54c-1.01,0.79-1.99,1.47-2.98,2.1    c-0.02,0.01-0.03,0.02-0.05,0.03c-0.98,0.62-2.01,1.2-3.13,1.76c-0.26,0.13-0.52,0.25-0.79,0.37l-0.15,0.07    c-0.68,0.31-1.5,0.69-2.4,1.04c-0.31,0.12-0.63,0.23-0.96,0.34l-0.25,0.09c-0.6,0.21-1.4,0.48-2.25,0.72    c-0.42,0.11-0.84,0.21-1.25,0.31l-0.15,0.04c-0.79,0.19-1.5,0.34-2.18,0.46c-0.5,0.08-1.01,0.16-1.52,0.23    c-0.71,0.1-1.42,0.17-2.13,0.22c-0.55,0.05-1.1,0.08-1.66,0.1c-0.32,0.01-0.64,0.01-0.96,0.01c-0.36,0-0.73,0-1.09-0.01h-0.1    c-0.54-0.01-1.09-0.03-1.64-0.06c-0.69-0.05-1.37-0.13-2.06-0.22l-0.35-0.04c-0.4-0.05-0.8-0.1-1.21-0.17    c-0.17-0.02-0.34-0.04-0.51-0.07c-32.19-5.81-53.65-16.91-63.8-32.99c-11.08-17.57-5.81-40.89,11.76-51.98    c3.27-2.06,7.59-1.08,9.66,2.19c0.44,0.7,0.73,1.45,0.9,2.21c0.04,0.16,0.08,0.33,0.1,0.49c0.03,0.17,0.03,0.34,0.04,0.5    c0.19,2.5-0.96,5.02-3.23,6.45c-11.04,6.97-14.36,21.63-7.39,32.67c7.95,12.6,26.21,21.56,54.26,26.65    c0.14,0.02,0.28,0.04,0.43,0.06c0.2,0.04,0.42,0.06,0.63,0.08l0.41,0.05c0.46,0.06,0.89,0.12,1.32,0.15    c0.32,0.02,0.65,0.02,0.98,0.03h0.11c0.43,0.01,0.86,0.02,1.29,0.01c0.35-0.02,0.69-0.04,1.04-0.07c0.44-0.03,0.88-0.08,1.32-0.13    c0.32-0.05,0.64-0.09,0.96-0.15c0.46-0.08,0.92-0.18,1.37-0.29l0.16-0.04c0.24-0.06,0.48-0.11,0.71-0.18    c0.48-0.13,0.95-0.29,1.42-0.45l0.39-0.14c0.12-0.04,0.25-0.08,0.37-0.12c0.5-0.2,1.05-0.45,1.51-0.67    c0.16-0.07,0.32-0.14,0.47-0.21l0.16-0.07c0.68-0.34,1.32-0.7,1.91-1.07c0.04-0.03,0.08-0.06,0.12-0.08    c0.59-0.37,1.18-0.79,1.81-1.28l0.09-0.08c0.13-0.11,0.26-0.22,0.39-0.33c0.4-0.33,0.86-0.71,1.26-1.09    c0.1-0.09,0.19-0.19,0.28-0.28l0.29-0.29c0.35-0.35,0.69-0.71,1.02-1.09c0.16-0.18,0.32-0.37,0.47-0.56l0.09-0.12    c0.3-0.37,0.59-0.74,0.86-1.13c0.19-0.26,0.37-0.52,0.55-0.79c0.24-0.37,0.47-0.75,0.69-1.14c0.18-0.31,0.34-0.6,0.5-0.91    c0.2-0.38,0.38-0.77,0.56-1.17l0.05-0.12c0.13-0.29,0.27-0.58,0.38-0.87c0.16-0.39,0.29-0.8,0.42-1.21l0.15-0.44    c0.07-0.21,0.14-0.41,0.2-0.62c0.05-0.14,0.09-0.27,0.13-0.4c7.48-27.51,7.25-47.84-0.7-60.44c-3.38-5.35-8.64-9.07-14.81-10.46    c-6.17-1.4-12.51-0.31-17.86,3.07c-6.16,3.89-10.13,10.3-10.89,17.59c-0.41,3.84-3.84,6.64-7.69,6.24    c-3.39-0.36-5.96-3.08-6.25-6.35c-0.01-0.17-0.03-0.33-0.03-0.5c0-0.17,0.01-0.34,0.02-0.5c0.01-0.12,0.01-0.23,0.02-0.34    c1.21-11.59,7.53-21.79,17.35-27.98c8.51-5.37,18.61-7.11,28.42-4.89c9.82,2.22,18.18,8.13,23.56,16.65    C191.24,120.29,192.03,144.44,183.42,175.98z"/>
<path class="st6" d="M289.11,86.92c0,1.85-0.75,3.65-2.05,4.95c-0.32,0.33-0.68,0.62-1.06,0.88c-0.38,0.25-0.79,0.46-1.21,0.64    c-0.42,0.17-0.86,0.31-1.31,0.4c-0.45,0.09-0.91,0.14-1.37,0.14c-1.21,0-2.4-0.34-3.45-0.94c-0.15-0.08-0.3-0.16-0.44-0.25    c-0.14-0.09-0.28-0.2-0.42-0.31c-0.22-0.17-0.44-0.35-0.64-0.56c-1.3-1.3-2.05-3.1-2.05-4.95c0-1.84,0.75-3.64,2.05-4.95    c1.5-1.5,3.7-2.24,5.83-1.98c0.16,0.02,0.33,0.04,0.49,0.07c0.01,0,0.01,0,0.02,0.01c0.17,0.03,0.33,0.08,0.5,0.12    c0.27,0.08,0.53,0.16,0.79,0.27c0.42,0.18,0.83,0.39,1.21,0.64c0.38,0.26,0.74,0.55,1.06,0.87    C288.36,83.28,289.11,85.08,289.11,86.92z"/>
<path class="st6" d="M428.43,182.84c-18.41,22.15-53.25,34.6-103.55,37c-0.23,0.01-0.46,0.02-0.68,0.01    c-0.32,0.01-0.63,0.01-0.93,0.01h-0.89l-0.53-0.01c-1.04,0-2.04-0.01-3.12-0.08c-0.78-0.05-1.56-0.13-2.34-0.21l-0.18-0.03    c-0.87-0.09-1.92-0.21-3.02-0.39c-0.8-0.14-1.59-0.29-2.37-0.46c-1.05-0.22-2.09-0.47-3.07-0.73c-0.72-0.2-1.44-0.41-2.16-0.63    c-0.97-0.31-2-0.67-3.11-1.1l-0.27-0.1c-0.56-0.21-1.12-0.43-1.67-0.66c-1.21-0.52-2.33-1.07-3.16-1.49l-0.41-0.21    c-0.43-0.2-0.85-0.41-1.26-0.64c-1.27-0.69-2.44-1.43-3.32-2l-0.31-0.18c-0.32-0.2-0.64-0.4-0.96-0.61    c-1.55-1.06-2.95-2.11-4.27-3.2c-0.01-0.01-0.02-0.02-0.02-0.02c-1.32-1.1-2.61-2.28-3.94-3.62c-0.27-0.28-0.52-0.56-0.78-0.85    l-0.24-0.27c-0.76-0.81-1.66-1.78-2.55-2.88c-0.31-0.37-0.59-0.75-0.88-1.13l-0.27-0.37c-0.57-0.75-1.32-1.74-2.04-2.83    c-0.33-0.5-0.65-1.02-0.97-1.54l-0.14-0.23c-0.63-1.04-1.17-1.96-1.64-2.85c-0.35-0.66-0.69-1.34-1.02-2.03    c-0.44-0.91-0.86-1.87-1.27-2.85c-0.31-0.75-0.61-1.51-0.89-2.28c-0.37-1.04-0.68-2.03-0.93-2.87l-0.06-0.19    c-0.23-0.75-0.45-1.5-0.64-2.26c-0.26-1.05-0.45-2.04-0.64-3l-0.11-0.55c-0.12-0.6-0.23-1.2-0.32-1.81    c-0.05-0.23-0.09-0.45-0.12-0.67c-3.33-24.4-3.64-45.8-0.92-63.61c0.59-3.82,4.16-6.45,7.98-5.86h0.01    c0.17,0.03,0.33,0.06,0.49,0.1c0.16,0.04,0.32,0.09,0.48,0.13c3.28,0.99,5.41,4.26,4.88,7.74c-2.51,16.45-2.2,36.45,0.93,59.46    c0.04,0.19,0.07,0.38,0.1,0.56c0.06,0.41,0.14,0.82,0.22,1.22l0.12,0.62c0.16,0.83,0.31,1.59,0.48,2.26    c0.14,0.55,0.3,1.09,0.46,1.63l0.06,0.2c0.2,0.66,0.44,1.43,0.7,2.14c0.2,0.58,0.43,1.14,0.66,1.7c0.31,0.74,0.63,1.45,0.95,2.13    c0.24,0.5,0.49,1.01,0.76,1.51c0.34,0.64,0.74,1.33,1.22,2.12l0.15,0.24c0.22,0.37,0.44,0.73,0.68,1.09    c0.5,0.75,1.05,1.49,1.52,2.11l0.36,0.48c0.16,0.21,0.32,0.43,0.49,0.64c0.63,0.76,1.32,1.52,1.92,2.15    c0.16,0.18,0.32,0.36,0.48,0.54c0.09,0.1,0.18,0.21,0.28,0.3c0.98,1,1.93,1.87,2.87,2.66c0.05,0.04,0.1,0.08,0.15,0.12    c0.95,0.79,1.98,1.56,3.14,2.34c0.11,0.08,0.22,0.14,0.34,0.21c0.2,0.13,0.41,0.25,0.61,0.38c0.73,0.47,1.6,1.02,2.47,1.5    c0.24,0.12,0.48,0.24,0.72,0.36l0.54,0.26c0.65,0.34,1.51,0.76,2.36,1.12c0.38,0.17,0.78,0.31,1.17,0.46l0.28,0.11    c0.85,0.33,1.61,0.6,2.32,0.82c0.53,0.17,1.07,0.32,1.61,0.47c0.72,0.19,1.49,0.38,2.29,0.54c0.59,0.13,1.17,0.25,1.77,0.34    c0.75,0.13,1.56,0.22,2.25,0.3l0.19,0.02c0.56,0.06,1.12,0.12,1.68,0.16c0.69,0.04,1.45,0.05,2.26,0.05l0.71,0.01    c0.4,0,0.81,0.01,1.22,0c0.19-0.01,0.38-0.01,0.57-0.01c46.13-2.23,77.52-12.98,93.31-31.96c14.58-17.53,12.17-43.66-5.36-58.25    c-9.79-8.14-22.59-11.28-35.11-8.6c-2.1,0.44-4.28-0.1-5.93-1.47c-1.65-1.37-2.58-3.42-2.52-5.57    c0.34-12.79-5.08-24.8-14.87-32.94c-17.54-14.58-43.67-12.18-58.25,5.36c-2.17,2.6-5.82,3.23-8.69,1.69    c-0.14-0.08-0.29-0.16-0.43-0.25c-0.14-0.08-0.28-0.19-0.41-0.29c-0.11-0.08-0.22-0.15-0.33-0.24c-2.98-2.48-3.38-6.89-0.91-9.86    c19.52-23.47,54.49-26.69,77.97-7.18c11,9.15,17.88,21.94,19.54,35.93c14.06-0.92,27.88,3.51,38.89,12.66    C444.73,124.4,447.95,159.37,428.43,182.84z"/>
<path class="st6" d="M388.4,169.52c-8.76,4.86-20.28,8.59-34.25,11.07c-0.42,0.07-0.83,0.11-1.24,0.11    c-3.33,0-6.28-2.38-6.88-5.78c-0.68-3.8,1.86-7.44,5.67-8.11c12.44-2.21,22.5-5.42,29.91-9.53c3.38-1.88,7.64-0.66,9.52,2.72    C393,163.38,391.78,167.65,388.4,169.52z"/>
<path class="st6" d="M101.1,254.2c1.3-1.3,2.05-3.1,2.05-4.94c0-1.85-0.75-3.65-2.05-4.95c-0.33-0.33-0.68-0.62-1.07-0.87    c-0.38-0.26-0.78-0.47-1.21-0.65c-0.42-0.17-0.86-0.31-1.31-0.4c-0.9-0.18-1.83-0.18-2.73,0c-0.45,0.09-0.89,0.23-1.31,0.4    c-0.42,0.18-0.83,0.39-1.21,0.65c-0.38,0.25-0.74,0.54-1.06,0.87c-1.31,1.3-2.05,3.1-2.05,4.95c0,1.84,0.74,3.64,2.05,4.94    c1.3,1.31,3.1,2.06,4.95,2.06C97.99,256.26,99.79,255.51,101.1,254.2z"/>
<path class="st6" d="M357.87,282.8c1.3-1.3,2.05-3.1,2.05-4.95c0-0.45-0.05-0.91-0.14-1.37c-0.09-0.44-0.22-0.88-0.4-1.31    c-0.17-0.42-0.39-0.83-0.64-1.21s-0.55-0.74-0.87-1.06c-1.3-1.3-3.11-2.05-4.95-2.05c-1.84,0-3.65,0.75-4.95,2.05    c-1.3,1.3-2.05,3.11-2.05,4.95c0,1.84,0.75,3.65,2.05,4.95c1.3,1.3,3.11,2.05,4.95,2.05C354.76,284.85,356.57,284.1,357.87,282.8z    "/>
<path class="st6" d="M215.83,211.67c0.38,0.25,0.79,0.47,1.21,0.64c0.43,0.18,0.87,0.31,1.31,0.4c0.45,0.1,0.91,0.14,1.37,0.14    c0.46,0,0.92-0.04,1.37-0.14c0.44-0.09,0.89-0.22,1.31-0.4c0.42-0.17,0.83-0.39,1.21-0.64s0.74-0.55,1.06-0.87    c1.3-1.3,2.05-3.11,2.05-4.95c0-0.45-0.05-0.91-0.14-1.37c-0.09-0.44-0.22-0.88-0.4-1.31c-0.17-0.42-0.39-0.83-0.64-1.2    c-0.25-0.39-0.55-0.75-0.87-1.07c-1.63-1.62-4.04-2.37-6.32-1.91c-0.44,0.09-0.88,0.22-1.31,0.4c-0.42,0.17-0.83,0.39-1.21,0.64    c-0.38,0.26-0.74,0.55-1.06,0.87c-1.3,1.3-2.05,3.11-2.05,4.95c0,1.84,0.75,3.65,2.05,4.95    C215.09,211.12,215.45,211.42,215.83,211.67z"/>
<path class="st6" d="M219.72,78.81c0.46,0,0.92-0.05,1.37-0.14c0.44-0.09,0.89-0.22,1.31-0.4c0.42-0.17,0.83-0.39,1.21-0.64    c0.38-0.26,0.74-0.55,1.06-0.87c1.3-1.3,2.05-3.11,2.05-4.95c0-1.84-0.75-3.65-2.05-4.95c-0.32-0.32-0.68-0.62-1.06-0.87    s-0.79-0.47-1.21-0.65c-0.42-0.17-0.87-0.3-1.31-0.39c-2.28-0.46-4.7,0.28-6.32,1.91c-1.3,1.3-2.05,3.1-2.05,4.95    c0,1.84,0.75,3.65,2.05,4.95C216.07,78.06,217.88,78.81,219.72,78.81z"/>
<path class="st4" d="M169.96,172.12c-0.04,0.13-0.08,0.26-0.13,0.4c-0.06,0.21-0.13,0.41-0.2,0.62l-0.15,0.44    c-0.13,0.41-0.26,0.82-0.42,1.21c-0.11,0.29-0.25,0.58-0.38,0.87l-0.05,0.12c-0.18,0.4-0.36,0.79-0.56,1.17    c-0.16,0.31-0.32,0.6-0.5,0.91c-0.22,0.39-0.45,0.77-0.69,1.14c-0.18,0.27-0.36,0.53-0.55,0.79c-0.27,0.39-0.56,0.76-0.86,1.13    l-0.09,0.12c-0.15,0.19-0.31,0.38-0.47,0.56c-0.33,0.38-0.67,0.74-1.02,1.09l-0.29,0.29c-0.09,0.09-0.18,0.19-0.28,0.28    c-0.4,0.38-0.86,0.76-1.26,1.09c-0.13,0.11-0.26,0.22-0.39,0.33l-0.09,0.08c-0.63,0.49-1.22,0.91-1.81,1.28    c-0.04,0.02-0.08,0.05-0.12,0.08c-0.59,0.37-1.23,0.73-1.91,1.07l-0.16,0.07c-0.15,0.07-0.31,0.14-0.47,0.21    c-0.46,0.22-1.01,0.47-1.51,0.67c-0.12,0.04-0.25,0.08-0.37,0.12l-0.39,0.14c-0.47,0.16-0.94,0.32-1.42,0.45    c-0.23,0.07-0.47,0.12-0.71,0.18l-0.16,0.04c-0.45,0.11-0.91,0.21-1.37,0.29c-0.32,0.06-0.64,0.1-0.96,0.15    c-0.44,0.05-0.88,0.1-1.32,0.13c-0.35,0.03-0.69,0.05-1.04,0.07c-0.43,0.01-0.86,0-1.29-0.01h-0.11    c-0.33-0.01-0.66-0.01-0.98-0.03c-0.43-0.03-0.86-0.09-1.32-0.15l-0.41-0.05c-0.21-0.02-0.43-0.04-0.63-0.08    c-0.15-0.02-0.29-0.04-0.43-0.06c-28.05-5.09-46.31-14.05-54.26-26.65c-6.97-11.04-3.65-25.7,7.39-32.67    c2.27-1.43,3.42-3.95,3.23-6.45c-0.01-0.16-0.01-0.33-0.04-0.5c4.37-0.92,9.03-1.47,12.72-1.79c0,0.17,0.02,0.33,0.03,0.5    c0.29,3.27,2.86,5.99,6.25,6.35c3.85,0.4,7.28-2.4,7.69-6.24c0.76-7.29,4.73-13.7,10.89-17.59c5.35-3.38,11.69-4.47,17.86-3.07    c6.17,1.39,11.43,5.11,14.81,10.46C177.21,124.28,177.44,144.61,169.96,172.12z"/>
<path class="st3" d="M412.31,115.64c-9.79-8.14-22.59-11.28-35.11-8.6c-2.1,0.44-4.28-0.1-5.93-1.47    c-1.65-1.37-2.58-3.42-2.52-5.57c0.34-12.79-5.08-24.8-14.87-32.94c-17.54-14.58-43.67-12.18-58.25,5.36    c-2.17,2.6-5.82,3.23-8.69,1.69c-0.14-0.08-0.29-0.16-0.43-0.25c-0.87,1.7-1.9,3.8-3.01,6.21c0.17,0.03,0.33,0.08,0.5,0.12    c0.27,0.08,0.53,0.16,0.79,0.27c0.42,0.18,0.83,0.39,1.21,0.64c0.38,0.26,0.74,0.55,1.06,0.87c1.3,1.31,2.05,3.11,2.05,4.95    c0,1.85-0.75,3.65-2.05,4.95c-0.32,0.33-0.68,0.62-1.06,0.88c-0.38,0.25-0.79,0.46-1.21,0.64c-0.42,0.17-0.86,0.31-1.31,0.4    c-0.45,0.09-0.91,0.14-1.37,0.14c-1.21,0-2.4-0.34-3.45-0.94c-0.15-0.08-0.3-0.16-0.44-0.25c-1.16,3.15-2.28,6.48-3.28,9.92    c0.16,0.04,0.32,0.09,0.48,0.13c3.28,0.99,5.41,4.26,4.88,7.74c-2.51,16.45-2.2,36.45,0.93,59.46c0.04,0.19,0.07,0.38,0.1,0.56    c0.06,0.41,0.14,0.82,0.22,1.22l0.12,0.62c0.16,0.83,0.31,1.59,0.48,2.26c0.14,0.55,0.3,1.09,0.46,1.63l0.06,0.2    c0.2,0.66,0.44,1.43,0.7,2.14c0.2,0.58,0.43,1.14,0.66,1.7c0.31,0.74,0.63,1.45,0.95,2.13c0.24,0.5,0.49,1.01,0.76,1.51    c0.34,0.64,0.74,1.33,1.22,2.12l0.15,0.24c0.22,0.37,0.44,0.73,0.68,1.09c0.5,0.75,1.05,1.49,1.52,2.11l0.36,0.48    c0.16,0.21,0.32,0.43,0.49,0.64c0.63,0.76,1.32,1.52,1.92,2.15c0.16,0.18,0.32,0.36,0.48,0.54c0.09,0.1,0.18,0.21,0.28,0.3    c0.98,1,1.93,1.87,2.87,2.66c0.05,0.04,0.1,0.08,0.15,0.12c0.95,0.79,1.98,1.56,3.14,2.34c0.11,0.08,0.22,0.14,0.34,0.21    c0.2,0.13,0.41,0.25,0.61,0.38c0.73,0.47,1.6,1.02,2.47,1.5c0.24,0.12,0.48,0.24,0.72,0.36l0.54,0.26    c0.65,0.34,1.51,0.76,2.36,1.12c0.38,0.17,0.78,0.31,1.17,0.46l0.28,0.11c0.85,0.33,1.61,0.6,2.32,0.82    c0.53,0.17,1.07,0.32,1.61,0.47c0.72,0.19,1.49,0.38,2.29,0.54c0.59,0.13,1.17,0.25,1.77,0.34c0.75,0.13,1.56,0.22,2.25,0.3    l0.19,0.02c0.56,0.06,1.12,0.12,1.68,0.16c0.69,0.04,1.45,0.05,2.26,0.05l0.71,0.01c0.4,0,0.81,0.01,1.22,0    c0.19-0.01,0.38-0.01,0.57-0.01c46.13-2.23,77.52-12.98,93.31-31.96C432.25,156.36,429.84,130.23,412.31,115.64z M388.4,169.52    c-8.76,4.86-20.28,8.59-34.25,11.07c-0.42,0.07-0.83,0.11-1.24,0.11c-3.33,0-6.28-2.38-6.88-5.78c-0.68-3.8,1.86-7.44,5.67-8.11    c12.44-2.21,22.5-5.42,29.91-9.53c3.38-1.88,7.64-0.66,9.52,2.72C393,163.38,391.78,167.65,388.4,169.52z"/>
<path class="st3" d="M313.91,302.21c-3.51-14.99-12.64-27.72-25.71-35.84c-13.08-8.12-28.53-10.67-43.52-7.16    c-17.28,4.03-31.52,15.61-39.07,31.76c-0.91,1.95-2.66,3.37-4.75,3.86c-2.09,0.48-4.29-0.01-5.96-1.35    c-13.93-11.14-31.83-15.21-49.11-11.17c-30.94,7.23-50.23,38.29-43,69.23c3.04,13.03,9.98,26.15,20.61,38.99    c2.02,2.43,2.08,5.8,0.43,8.3c-0.1,0.15-0.18,0.29-0.28,0.43l10.47,9.83c0.14-0.1,0.29-0.18,0.44-0.27    c1.09-0.68,2.36-1.06,3.65-1.06c1.84,0,3.65,0.75,4.95,2.05c1.3,1.31,2.05,3.11,2.05,4.95c0,0.46-0.05,0.92-0.14,1.37    c-0.09,0.45-0.22,0.89-0.4,1.31c-0.09,0.21-0.18,0.41-0.29,0.61c-0.08,0.15-0.17,0.3-0.26,0.44l8.16,7.66    c0.11-0.13,0.23-0.24,0.34-0.36c2.38-2.38,6.2-2.75,9.02-0.72c10.29,7.41,22.01,14.82,34.83,22.03c0.24,0.11,0.44,0.21,0.63,0.32    c0.52,0.29,1.05,0.54,1.58,0.79l0.75,0.37c1.07,0.53,2.02,0.99,2.92,1.38c0.73,0.31,1.47,0.58,2.21,0.85l0.26,0.1    c0.9,0.33,1.96,0.72,2.97,1.03c0.81,0.25,1.62,0.47,2.44,0.69c1.08,0.28,2.14,0.53,3.16,0.74c0.77,0.15,1.55,0.3,2.33,0.42    c1,0.16,2.11,0.3,3.38,0.43l0.35,0.03c0.61,0.06,1.21,0.13,1.82,0.16c1.26,0.08,2.54,0.09,3.62,0.08l0.78,0.01    c0.4,0,0.8,0.01,1.19-0.01c1.38-0.05,2.8-0.19,4-0.32c0.3-0.03,0.6-0.05,0.9-0.08c0.22-0.01,0.45-0.03,0.67-0.06    c1.93-0.26,3.7-0.57,5.38-0.97c0.08-0.01,0.15-0.03,0.23-0.05c1.68-0.39,3.4-0.89,5.25-1.52c0.22-0.07,0.42-0.15,0.62-0.23    c0.28-0.11,0.56-0.22,0.83-0.33c1.14-0.41,2.47-0.92,3.75-1.49c0.36-0.16,0.7-0.34,1.05-0.52l0.7-0.34    c0.91-0.45,2.1-1.05,3.23-1.69c0.53-0.31,1.04-0.63,1.56-0.95l0.28-0.18c1.08-0.67,2.02-1.29,2.87-1.9    c0.64-0.45,1.26-0.91,1.87-1.39c0.83-0.64,1.68-1.34,2.53-2.08c0.64-0.55,1.26-1.11,1.87-1.68c0.78-0.75,1.56-1.56,2.22-2.26    l0.19-0.2c0.54-0.57,1.08-1.14,1.59-1.74c0.65-0.75,1.3-1.6,1.99-2.5l0.54-0.7c0.35-0.46,0.71-0.91,1.05-1.39    c0.14-0.21,0.28-0.4,0.43-0.58C307.59,377.79,321.57,335.01,313.91,302.21z M287.26,315.63c-0.53,0.12-1.07,0.18-1.6,0.18    c-3.18,0-6.05-2.18-6.81-5.41c-2.3-9.84-10.94-16.72-21.01-16.72c-3.86,0-7-3.13-7-7s3.14-7,7-7c16.61,0,30.86,11.32,34.64,27.54    C293.36,310.98,291.03,314.75,287.26,315.63z"/>
</g>
</g>
</svg>